<svg width="13" height="14" viewBox="0 0 13 14" fill="none" xmlns="http://www.w3.org/2000/svg">
<path d="M3.25 0C3.50536 0 3.71429 0.196875 3.71429 0.4375V1.75H9.28571V0.4375C9.28571 0.196875 9.49464 0 9.75 0C10.0054 0 10.2143 0.196875 10.2143 0.4375V1.75H11.1429C12.1672 1.75 13 2.53477 13 3.5V4.375V5.25V12.25C13 13.2152 12.1672 14 11.1429 14H1.85714C0.832812 14 0 13.2152 0 12.25V5.25V4.375V3.5C0 2.53477 0.832812 1.75 1.85714 1.75H2.78571V0.4375C2.78571 0.196875 2.99464 0 3.25 0ZM12.0714 5.25H0.928571V12.25C0.928571 12.734 1.34353 13.125 1.85714 13.125H11.1429C11.6565 13.125 12.0714 12.734 12.0714 12.25V5.25ZM11.1429 2.625H1.85714C1.34353 2.625 0.928571 3.01602 0.928571 3.5V4.375H12.0714V3.5C12.0714 3.01602 11.6565 2.625 11.1429 2.625Z" fill="black"/>
</svg>
