<svg width="7" height="7" viewBox="0 0 7 7" fill="none" xmlns="http://www.w3.org/2000/svg">
<path d="M3.558 5.12469L5.5448 3.13779C5.6003 3.08239 5.628 3.0168 5.628 2.9409C5.628 2.8651 5.6003 2.7994 5.5448 2.744L5.0984 2.2976C5.043 2.2422 4.9774 2.2144 4.9015 2.2144C4.8257 2.2144 4.76 2.2422 4.7046 2.2976L3.361 3.6411L2.0175 2.2976C1.9621 2.2422 1.8964 2.2144 1.8206 2.2144C1.7447 2.2144 1.6791 2.2422 1.6236 2.2976L1.1773 2.744C1.1218 2.7994 1.0941 2.8651 1.0941 2.9409C1.0941 3.0168 1.1218 3.08239 1.1773 3.13779L3.1641 5.12469C3.2195 5.18009 3.2852 5.2078 3.361 5.2078C3.4369 5.2078 3.5025 5.18009 3.558 5.12469ZM6.2713 1.6761C6.5718 2.1896 6.7221 2.7513 6.7221 3.361C6.7221 3.9708 6.5718 4.5339 6.2713 5.0503C5.9708 5.5638 5.5623 5.9708 5.0459 6.2713C4.5324 6.5718 3.9708 6.7221 3.361 6.7221C2.7513 6.7221 2.1882 6.5718 1.6718 6.2713C1.1583 5.9708 0.751298 5.5638 0.450798 5.0503C0.150298 4.5339 0 3.9708 0 3.361C0 2.7513 0.150298 2.1896 0.450798 1.6761C0.751298 1.1597 1.1583 0.751298 1.6718 0.450798C2.1882 0.150298 2.7513 0 3.361 0C3.9708 0 4.5324 0.150298 5.0459 0.450798C5.5623 0.751298 5.9708 1.1597 6.2713 1.6761Z" fill="#FFA3A6"/>
</svg>
