<svg width="8" height="8" viewBox="0 0 8 8" fill="none" xmlns="http://www.w3.org/2000/svg">
<path d="M5.5813 5.09789C5.4615 5.21769 5.2699 5.21769 5.1501 5.09789L3.6794 3.62719L2.2086 5.09789C2.0888 5.21769 1.8972 5.21769 1.7774 5.09789L1.2887 4.60929C1.169 4.48949 1.169 4.29789 1.2887 4.17809L3.4638 2.00309C3.5835 1.88329 3.7752 1.88329 3.8949 2.00309L6.07 4.17809C6.1897 4.29789 6.1897 4.48949 6.07 4.60929L5.5813 5.09789ZM7.3587 3.93379C7.3587 1.90249 5.7107 0.254395 3.6794 0.254395C1.648 0.254395 0 1.90249 0 3.93379C0 5.96509 1.648 7.61309 3.6794 7.61309C5.7107 7.61309 7.3587 5.96509 7.3587 3.93379Z" fill="#B1FFC2"/>
</svg>
